<svg id="Layer_1" data-name="Layer 1" xmlns="http://www.w3.org/2000/svg" viewBox="0 0 51 30"><path d="M15.13,11.19c1.38-.85,2.59-.79,3.57.35a7.15,7.15,0,0,1,1.4-.8,2.53,2.53,0,0,1,3.21,1.77A5.54,5.54,0,0,1,23.52,14c0,1.61,0,3.22,0,4.83,0,.33-.1.44-.42.42-.49,0-1,0-1.45,0s-.49,0-.49-.47c0-1.67,0-3.34,0-5a.85.85,0,0,0-1.23-.8.91.91,0,0,0-.55.73,4.52,4.52,0,0,0-.06.74q0,2.2,0,4.41c0,.33-.1.42-.42.41-.51,0-1,0-1.52,0-.3,0-.4-.09-.4-.4,0-1.66,0-3.32,0-5a1,1,0,0,0-.36-.84.92.92,0,0,0-1.39.5,3,3,0,0,0-.09.73c0,1.52,0,3,0,4.55,0,.35-.12.44-.45.43-.53,0-1.06,0-1.58,0-.23,0-.31-.08-.31-.31V11c0-.24.07-.34.32-.33.5,0,1,0,1.48,0S15.27,10.64,15.13,11.19Z"/><path d="M9.16,11.61c0-.28,0-.48,0-.67s.07-.3.28-.3h1.77c.21,0,.28.1.28.3v8c0,.23-.09.31-.31.31-.56,0-1.13,0-1.69,0-.24,0-.35-.07-.33-.33s0-.36,0-.6a1.75,1.75,0,0,0-.24.15,3.48,3.48,0,0,1-5-.66A4.59,4.59,0,0,1,5,11.12a3.25,3.25,0,0,1,3.74.17C8.84,11.37,9,11.46,9.16,11.61ZM5.25,15A1.91,1.91,0,0,0,7.19,16.9,2,2,0,1,0,5.25,15Z"/><path d="M42,14.91h2.27a5.1,5.1,0,0,1-.46,2,5.55,5.55,0,0,1-5.45,3.44,5.71,5.71,0,0,1-5.77-6A5.77,5.77,0,0,1,36.48,9a1.17,1.17,0,0,1,1.59.68,1.14,1.14,0,0,1-.81,1.48A3.27,3.27,0,0,0,35,13.67,3.56,3.56,0,1,0,42,15Z"/><path d="M28.16,15.74c.24-.68.43-1.25.63-1.82.35-1,.7-2,1-3a.35.35,0,0,1,.4-.29c.6,0,1.2,0,1.8,0l.36,0c-.09.25-.16.46-.24.66l-2.7,7.55c-.09.26-.2.37-.49.35-.59,0-1.18,0-1.76,0a.36.36,0,0,1-.4-.29C25.9,16.3,25,13.64,24.08,11c-.09-.28,0-.36.26-.36q.9,0,1.8,0c.27,0,.36.11.43.34.47,1.44.95,2.87,1.42,4.31Z"/><path d="M47.05,14.2c-.12,0-.23,0-.35,0-.59,0-.67-.12-.77-.7a7.34,7.34,0,0,0-1.86-3.79,8.28,8.28,0,0,0-2.85-2.12c-.53-.21-1.09-.36-1.61-.6a2.13,2.13,0,0,1-1.2-1.47c-.12-.5,0-.61.51-.56a10.54,10.54,0,0,1,3,.71,10.17,10.17,0,0,1,6.12,7.87c.07.46,0,.52-.43.61a5.6,5.6,0,0,1-.59.07Z"/><path d="M33.47,20.34c.22.16.43.29.61.45a.35.35,0,0,1,.05.3l-2.49,7.09a3.12,3.12,0,0,1-.18.39L12.19,21.74c.14-.39.25-.72.38-1a.31.31,0,0,1,.23-.16,6,6,0,0,1,.74,0l-.16.65,1.63.6,7.32,2.58,8.17,2.91c.41.15.44.14.59-.29q1.11-3.16,2.23-6.33C33.35,20.56,33.41,20.47,33.47,20.34Z"/><path d="M35.5,7.27a2.4,2.4,0,0,1-2.12.21l-5.6-2L20,2.75c-.47-.16-.46-.15-.63.32-.6,1.69-1.19,3.38-1.81,5.06a1.88,1.88,0,0,1-1.37,1.21L19,1.43Z"/><path d="M43.19,14.35H43a1.8,1.8,0,0,1-.82-.11c-.16-.11-.17-.46-.24-.71a3.82,3.82,0,0,0-2-2.53A2.91,2.91,0,0,1,38.5,9.22c-.12-.4,0-.5.36-.47a5.64,5.64,0,0,1,4.28,2.3,5.86,5.86,0,0,1,1.12,2.77c.06.39,0,.49-.44.52h-.63Z"/><path d="M38.54,12.46a1.76,1.76,0,0,1,1.74,1.35c.11.39,0,.52-.38.53a10.48,10.48,0,0,1-1.12,0c-.08,0-.23-.1-.23-.16C38.53,13.59,38.54,13,38.54,12.46Z"/></svg>