<svg id="Layer_1" data-name="Layer 1" xmlns="http://www.w3.org/2000/svg" viewBox="0 0 97 30"><defs><style>.cls-1{fill-rule:evenodd;}</style></defs><path class="cls-1" d="M37.64,8.57c2.16,0,4.15,1.17,3.88,4.09C41.2,16.11,39.33,18,36.4,18H33.85c-.37,0-.55.3-.65.92l-.49,3.15c-.07.47-.32.71-.68.71H29.65c-.38,0-.51-.25-.43-.79l2-12.61c.1-.62.34-.85.76-.85Zm-3.87,6.75h1.94c1.21-.05,2-.88,2.1-2.4a1.47,1.47,0,0,0-1.59-1.6H34.39l-.62,4ZM48,21.85c.22-.2.44-.3.41-.06l-.08.59c0,.3.08.46.36.46H50.8c.35,0,.53-.14.62-.69L52.72,14c.06-.41,0-.61-.35-.61H50.05c-.21,0-.31.12-.37.44l-.09.5c0,.26-.16.31-.27,0-.4-.93-1.4-1.35-2.81-1.32a5.82,5.82,0,0,0-5.7,5.72,3.93,3.93,0,0,0,3.9,4.38A4.2,4.2,0,0,0,48,21.85Zm-1.77-1.26A2.12,2.12,0,0,1,44,18.1,3,3,0,0,1,47,15.61a2.13,2.13,0,0,1,2.18,2.49,3,3,0,0,1-2.92,2.49Zm10.64-7.26H54.72c-.44,0-.62.33-.48.74l2.66,7.79-2.62,3.71c-.22.31-.05.6.26.6H57a.76.76,0,0,0,.72-.36l8.18-11.74c.26-.36.14-.74-.28-.74H63.29c-.39,0-.54.16-.77.48l-3.41,5-1.52-5A.66.66,0,0,0,56.86,13.33Z"/><path class="cls-1" d="M74.37,8.57c2.16,0,4.15,1.17,3.88,4.09C77.93,16.11,76.06,18,73.13,18H70.58c-.37,0-.55.3-.65.92l-.49,3.15c-.07.47-.32.71-.68.71H66.38c-.38,0-.51-.25-.43-.79l2-12.61c.1-.62.34-.85.76-.85ZM70.5,15.32h1.94c1.21-.05,2-.88,2.1-2.4A1.47,1.47,0,0,0,73,11.32H71.12l-.62,4Zm14.22,6.53c.22-.2.44-.3.41-.06l-.08.59c0,.3.08.46.36.46h2.12c.35,0,.53-.14.62-.69L89.45,14c.06-.41,0-.61-.35-.61H86.78c-.21,0-.31.12-.37.44l-.09.5c0,.26-.16.31-.27,0-.4-.93-1.4-1.35-2.81-1.32a5.82,5.82,0,0,0-5.7,5.72,3.93,3.93,0,0,0,3.9,4.38,4.2,4.2,0,0,0,3.28-1.27ZM83,20.59a2.13,2.13,0,0,1-2.18-2.49,3,3,0,0,1,2.92-2.49,2.13,2.13,0,0,1,2.18,2.49A3,3,0,0,1,83,20.59Zm9.75,2.27H90.26a.29.29,0,0,1-.3-.34L92.11,8.94a.42.42,0,0,1,.41-.34H95a.28.28,0,0,1,.29.34L93.11,22.52A.42.42,0,0,1,92.7,22.86Z"/><path d="M19.29,9.66c-.66,4.32-3.45,6.72-7.13,6.72H8.9l-.11,0c-.41.09-.68.46-.82,1.25l-.64,4.11L7.08,23.3v0l-.35,2.24c-.1.63,0,.92.41.92h4a.55.55,0,0,0,.46-.52l.73-4.83c.13-.84.44-1.14.9-1.14H15c3.37,0,5.92-2.33,6.25-6.55A3.48,3.48,0,0,0,19.29,9.66Z"/><path d="M6.94,21.48l.65-4.11c.13-.79.41-1.16.81-1.26h3.38c3.67,0,6.47-2.4,7.13-6.72,0-.29.08-.59.1-.9a4.32,4.32,0,0,0-1.34-3.63C16.24,3.58,14.1,3.52,12.3,3.52H5.91A1.13,1.13,0,0,0,4.62,4.59l-2.84,18c-.12.73,0,1.06.48,1.06H6.2c.28,0,.44-.23.5-.59h0Z"/></svg>